<svg height="192" width="192" viewBox="0 0 184 152" xmlns="http://www.w3.org/2000/svg"  fill="none">
    <g fill="#D1D5DB">
        <path
            d="M24.97 51.46c-1.75 0-3.18 1.43-3.18 3.18v57.29c0 1.75 1.43 3.18 3.18 3.18h57.29c1.75 0 3.18-1.43 3.18-3.18V54.64c0-1.75-1.43-3.18-3.18-3.18H24.97zm0-6.37h57.29c5.26 0 9.55 4.29 9.55 9.55v57.29c0 5.26-4.29 9.55-9.55 9.55H24.97c-5.26 0-9.55-4.29-9.55-9.55V54.64c0-5.26 4.29-9.55 9.55-9.55z" />
        <path
            d="M101.74 36.72c-1.75 0-3.18 1.43-3.18 3.18v57.29c0 1.75 1.43 3.18 3.18 3.18h57.29c1.75 0 3.18-1.43 3.18-3.18V39.9c0-1.75-1.43-3.18-3.18-3.18h-57.29zm0-6.37h57.29c5.26 0 9.55 4.29 9.55 9.55v57.29c0 5.26-4.29 9.55-9.55 9.55h-57.29c-5.26 0-9.55-4.29-9.55-9.55V39.9c0-5.26 4.29-9.55 9.55-9.55z" />
        <path fillRule="evenodd" clipRule="evenodd"
            d="M33.82 83.92l13.4-13.4 8.49 8.49 21.89-21.89 4.24 4.24-26.13 26.13-8.49-8.48-9.16 9.15-4.24-4.24z" />
        <path fillRule="evenodd" clipRule="evenodd"
            d="M110.59 69.15l13.4-13.4 8.49 8.49 21.89-21.89 4.24 4.24-26.13 26.13-8.49-8.48-9.16 9.15-4.24-4.24z" />
    </g>
</svg>